<svg height="512" viewBox="0 0 128 128" width="512" xmlns="http://www.w3.org/2000/svg"><g><path d="m46.359 58.148s-3.011 13.442-3.534 16.266a12.7 12.7 0 0 1 -3.625 6.126 2.377 2.377 0 0 0 1.709 4.025h10.866l4.75-26.417z" fill="#db8758"/><path d="m56.234 58.148s-3.011 13.442-3.534 16.266a12.7 12.7 0 0 1 -3.626 6.126 2.377 2.377 0 0 0 1.709 4.025h10.867l4.75-26.417z" fill="#f4a86c"/><path d="m81.359 56.44s-3.011 13.441-3.534 16.266a12.711 12.711 0 0 1 -3.625 6.126 2.377 2.377 0 0 0 1.709 4.024h10.866l4.75-26.416z" fill="#db8758"/><path d="m91.234 56.44s-3.011 13.441-3.534 16.266a12.711 12.711 0 0 1 -3.626 6.126 2.377 2.377 0 0 0 1.709 4.024h10.867l4.75-26.416z" fill="#f4a86c"/><path d="m32.585 59.5c19.125 8.75 63.75 6.667 70.583 16.833s-6.5 24.282-24.667 27.475c22.334 0 34.989-7.417 39.636-15.6 4.948-8.71 5.323-20.585-4.969-31.877-6.685-7.331-49.833-29.581-71.833-26.581z" fill="#663325"/><path d="m85.216 48.414a1.755 1.755 0 0 1 -.726-.158c-2.475-1.13-4.974-2.2-7.428-3.2a1.75 1.75 0 0 1 1.311-3.245c2.5 1.01 5.048 2.106 7.57 3.256a1.75 1.75 0 0 1 -.727 3.343z" fill="#51221c"/><path d="m56 47.31c-3.67 4.34-9.77 2.69-9.77 2.69 2.47 3.5 1.83 10.06 1.83 10.06-3.57.73-9.47-2.14-9.8-2.3 2.3 4.5.31 10.74.31 10.74-14.6-4.08-32.07-15.12-32.07-32.69a38.287 38.287 0 0 0 4.31 3.28c.72-.96 1.46-1.87 2.23-2.72 8.15-9.15 18.79-12.18 40.25-12.18l-3.79 7.23c4.71.5 9.33 3.75 9.33 3.75-3.21 3.21-9.21 4.79-9.21 4.79 5.38 3.73 6.38 7.35 6.38 7.35z" fill="#f4a86c"/><g fill="#663325"><path d="m29.92 45.3a1.75 1.75 0 0 1 -1.7 1.34 2 2 0 0 1 -.41-.05 60.331 60.331 0 0 1 -17-7.5c.72-.96 1.46-1.87 2.23-2.72a57.811 57.811 0 0 0 15.6 6.82 1.745 1.745 0 0 1 1.28 2.11z"/><circle cx="32.667" cy="35.051" r="3"/></g></g></svg>